<svg width="43" height="51" viewBox="0 0 43 51" fill="none" xmlns="http://www.w3.org/2000/svg">
<circle cx="21.5" cy="29.5" r="21.5" fill="#FFE2AA"/>
<path d="M16.8354 41.0767C16.8354 41.0767 17.5446 37.2131 23.4142 35.8096C29.2839 34.406 31.8185 37.494 31.8185 37.494" stroke="black" stroke-width="3" stroke-linecap="round"/>
<circle cx="14" cy="26" r="2" fill="black"/>
<circle cx="30" cy="26" r="2" fill="black"/>
<path d="M27.6689 20.5474C29.2372 22.3288 30.2382 23.2105 33.9407 22.9425" stroke="black" stroke-width="3" stroke-linecap="round"/>
<path d="M14.7891 17.3267C12.4158 17.3042 11.091 17.4604 8.81782 20.3951" stroke="black" stroke-width="3" stroke-linecap="round"/>
<path d="M32.5147 0C30.0197 0 28.4037 1.02197 27.1349 2.84456C26.9048 3.17519 26.9757 3.6285 27.2968 3.87188L28.6452 4.89403C28.9695 5.13981 29.4308 5.08234 29.6846 4.76441C30.4676 3.78375 31.0485 3.21913 32.2715 3.21913C33.2331 3.21913 34.4226 3.83784 34.4226 4.77009C34.4226 5.47484 33.8406 5.83678 32.8911 6.36897C31.7839 6.98959 30.3186 7.76197 30.3186 9.69413V10C30.3186 10.4142 30.6545 10.75 31.0688 10.75H33.3341C33.7485 10.75 34.0843 10.4142 34.0843 10V9.81959C34.0843 8.48022 38 8.42444 38 4.8C38 2.0705 35.168 0 32.5147 0ZM32.2015 11.6706C31.0075 11.6706 30.0362 12.6417 30.0362 13.8353C30.0362 15.0289 31.0075 16 32.2015 16C33.3954 16 34.3668 15.0289 34.3668 13.8353C34.3668 12.6417 33.3954 11.6706 32.2015 11.6706Z" fill="black"/>
</svg>
