<svg width="43" height="43" viewBox="0 0 43 43" fill="none" xmlns="http://www.w3.org/2000/svg">
<circle cx="21.5" cy="21.5" r="21.5" fill="#3468CD"/>
<path d="M27.4067 6.396C28.1342 8.6551 28.7004 9.86298 32.2025 11.0941" stroke="black" stroke-width="3" stroke-linecap="round"/>
<path d="M16.2764 6.47412C15.46 8.70265 14.8464 9.88716 11.2984 10.9786" stroke="black" stroke-width="3" stroke-linecap="round"/>
<path d="M26.2886 15.4419C28.6167 14.9809 29.9476 14.8893 32.7243 17.353" stroke="black" stroke-width="3" stroke-linecap="round"/>
<path d="M16.7554 15.6436C14.4569 15.0522 13.1333 14.8859 10.2222 17.1893" stroke="black" stroke-width="3" stroke-linecap="round"/>
<path d="M22.0925 23.0056C17.6747 22.8584 14.2877 25.6563 14.2877 25.6563C14.2877 25.6563 9.82525 28.896 11.2979 30.5159C12.7705 32.1357 15.3185 31.5298 18.7055 30.5159C22.0925 29.502 25.3322 30.5159 25.3322 30.5159C25.3322 30.5159 31.798 33.1666 31.798 30.5159C31.798 27.8652 29.161 25.6563 29.161 25.6563C29.161 25.6563 26.5103 23.1529 22.0925 23.0056Z" fill="#3468CD" stroke="black" stroke-width="3"/>
</svg>
