<svg width="43" height="43" viewBox="0 0 43 43" fill="none" xmlns="http://www.w3.org/2000/svg">
<circle cx="21.5" cy="21.5" r="21.5" fill="#FFC737"/>
<path d="M13 28.686C13 28.686 14.9852 32.2054 22.0066 31.9366C29.028 31.6678 30.923 27.9999 30.923 27.9999" stroke="black" stroke-width="3" stroke-linecap="round"/>
<path d="M26 5.68555C28.3392 6.08677 29.6149 6.4768 31.3281 9.76995" stroke="black" stroke-width="3" stroke-linecap="round"/>
<path d="M17.2417 5.67432C14.8776 5.88305 13.5742 6.16753 11.5976 9.30968" stroke="black" stroke-width="3" stroke-linecap="round"/>
<path d="M10.0002 19.8261C10.0002 19.8261 9.90462 15.8156 13.9196 16.0066C17.9345 16.1976 17.6477 19.8261 17.6477 19.8261" stroke="black" stroke-width="3" stroke-linecap="square"/>
<path d="M33.9124 19.8261C33.9124 19.8261 34.008 15.8156 29.993 16.0066C25.9781 16.1976 26.2649 19.8261 26.2649 19.8261" stroke="black" stroke-width="3" stroke-linecap="square"/>
</svg>
