<svg width="43" height="43" viewBox="0 0 43 43" fill="none" xmlns="http://www.w3.org/2000/svg">
<circle cx="21.5" cy="21.5" r="21.5" fill="#5FB4CE"/>
<path d="M16 29.5811C16 29.5811 17.473 26.0961 21.9652 26.461C26.4574 26.8258 27.3785 29.0021 27.3785 29.0021" stroke="black" stroke-width="3" stroke-linecap="round"/>
<circle cx="14" cy="20" r="2" fill="black"/>
<circle cx="30" cy="20" r="2" fill="black"/>
<path d="M28.293 13.9009C29.9476 15.9779 31.083 17.0544 36.3763 17.5891" stroke="black" stroke-width="3" stroke-linecap="round"/>
<path d="M15.0322 13.874C13.4062 15.9619 12.2856 17.0458 6.99996 17.6155" stroke="black" stroke-width="3" stroke-linecap="round"/>
<path d="M30.5 30C29.837 30 29.2011 29.7428 28.7322 29.2848C28.2634 28.8269 28 28.2059 28 27.5583C28 26.5553 28.475 25.8036 29.0537 24.8877C29.5038 24.1753 30.0167 23.3636 30.4177 22.2571C30.4411 22.1925 30.4996 22 30.4996 22C30.4996 22 30.4998 22.0004 30.5 22.0012C30.5002 22.0004 30.5004 22 30.5004 22C30.5004 22 30.5589 22.1925 30.5823 22.2571C30.9833 23.3636 31.4962 24.1753 31.9463 24.8877C32.525 25.8036 33 26.5553 33 27.5583C33 28.2059 32.7366 28.8269 32.2678 29.2848C31.8022 29.7395 31.1584 30 30.5 30Z" fill="#308CAA"/>
</svg>
