<svg width="43" height="43" viewBox="0 0 43 43" fill="none" xmlns="http://www.w3.org/2000/svg">
<circle cx="21.5" cy="21.5" r="21.5" fill="#969393"/>
<path d="M31.4204 31.5903C31.4204 31.5903 29.1931 28.0795 21.2466 28.3808C13.3002 28.6822 11.136 32.3596 11.136 32.3596" stroke="black" stroke-width="3" stroke-linecap="round"/>
<path d="M27 8.18115C29.1095 11.0816 30.4483 12.5508 35.2929 12.7019" stroke="black" stroke-width="3" stroke-linecap="round"/>
<path d="M16.293 8.18115C14.1834 11.0816 12.8446 12.5508 8.00006 12.7019" stroke="black" stroke-width="3" stroke-linecap="round"/>
<path d="M34.5 16C34.5 16 25 19 25 20.5C25 22 34.5 22 34.5 22" stroke="black" stroke-width="3"/>
<path d="M8 16C8 16 17.5 19 17.5 20.5C17.5 22 8 22 8 22" stroke="black" stroke-width="3"/>
</svg>
