<svg width="44" height="43" viewBox="0 0 44 43" fill="none" xmlns="http://www.w3.org/2000/svg">
<circle cx="21.5" cy="21.5" r="21.5" fill="#FFB69F"/>
<path d="M26.0664 17.3149C28.3945 16.8539 29.7254 16.7624 32.5022 19.226" stroke="black" stroke-width="3" stroke-linecap="round"/>
<path d="M16.5332 17.5166C14.2347 16.9252 12.9111 16.7589 10.0001 19.0624" stroke="black" stroke-width="3" stroke-linecap="round"/>
<path d="M26.9878 6L34.9878 13" stroke="black" stroke-width="3" stroke-linecap="round"/>
<path d="M16 6.12891L8 13.1289" stroke="black" stroke-width="3" stroke-linecap="round"/>
<path d="M25.5 28.1289C25.5 30.8819 23.6885 32.6289 22 32.6289C20.3115 32.6289 18.5 30.8819 18.5 28.1289C18.5 25.3759 20.3115 23.6289 22 23.6289C23.6885 23.6289 25.5 25.3759 25.5 28.1289Z" stroke="black" stroke-width="3"/>
<path d="M22.1529 27.5783L28.1832 29.6661C28.1832 29.6661 28.0993 27.0378 29.4564 25.5912C30.8134 24.1447 33.6617 25.457 33.6617 25.457C33.6617 25.457 33.5331 21.4269 37.9528 22.5137C42.3726 23.6004 39.3695 28.4321 39.3695 28.4321C39.3695 28.4321 44.6709 29.6662 42.5105 33.4185C40.35 37.1709 37.1121 34.6432 37.1121 34.6432C37.1121 34.6432 34.7988 39.102 31.5888 37.4505C28.3789 35.799 28.8431 33.8547 28.8431 33.8547L22.1529 27.5783Z" fill="white"/>
</svg>
