<svg width="49" height="49" viewBox="0 0 49 49" fill="none" xmlns="http://www.w3.org/2000/svg">
<path d="M45.3929 23.6964C45.3929 19.4053 44.1204 15.2105 41.7363 11.6425C39.3523 8.07459 35.9638 5.2937 31.9993 3.65155C28.0348 2.0094 23.6724 1.57974 19.4637 2.4169C15.255 3.25406 11.389 5.32045 8.35474 8.35474C5.32045 11.389 3.25406 15.255 2.4169 19.4637C1.57974 23.6724 2.0094 28.0348 3.65155 31.9993C5.2937 35.9638 8.07459 39.3523 11.6425 41.7363C15.2105 44.1204 19.4053 45.3929 23.6964 45.3929M16.4643 18.875H16.4884M30.9286 18.875H30.9527" stroke="" stroke-width="4" stroke-linecap="round" stroke-linejoin="round"/>
<path d="M18.0713 30.9286C19.5941 32.4714 21.6816 33.2245 23.857 33.2245M42.8341 42.8674L46.9999 47M30.7999 37.8163C30.7999 39.6431 31.5313 41.395 32.8334 42.6867C34.1354 43.9784 35.9014 44.7041 37.7427 44.7041C39.5841 44.7041 41.35 43.9784 42.6521 42.6867C43.9541 41.395 44.6856 39.6431 44.6856 37.8163C44.6856 35.9896 43.9541 34.2377 42.6521 32.946C41.35 31.6543 39.5841 30.9286 37.7427 30.9286C35.9014 30.9286 34.1354 31.6543 32.8334 32.946C31.5313 34.2377 30.7999 35.9896 30.7999 37.8163Z" stroke="" stroke-width="4" stroke-linecap="round" stroke-linejoin="round"/>
</svg>
