<svg width="36" height="36" viewBox="0 0 36 36" fill="none" xmlns="http://www.w3.org/2000/svg">
<circle cx="18" cy="18" r="18" fill="#DBDBDB"/>
<path d="M22.5813 11.5974L25.4 14.4167C25.5187 14.5355 25.5187 14.7292 25.4 14.848L18.575 21.6744L15.675 21.9963C15.2875 22.04 14.9594 21.7119 15.0031 21.3243L15.325 18.4237L22.15 11.5974C22.2687 11.4786 22.4625 11.4786 22.5813 11.5974ZM27.6437 10.8816L26.1187 9.35632C25.6437 8.88123 24.8719 8.88123 24.3938 9.35632L23.2875 10.4628C23.1688 10.5816 23.1688 10.7753 23.2875 10.8941L26.1063 13.7134C26.225 13.8322 26.4188 13.8322 26.5375 13.7134L27.6437 12.607C28.1187 12.1287 28.1187 11.3567 27.6437 10.8816ZM22 19.8177V22.9996H12V12.9977H19.1812C19.2812 12.9977 19.375 12.957 19.4469 12.8883L20.6969 11.638C20.9344 11.4005 20.7656 10.9973 20.4312 10.9973H11.5C10.6719 10.9973 10 11.6693 10 12.4976V23.4997C10 24.328 10.6719 25 11.5 25H22.5C23.3281 25 24 24.328 24 23.4997V18.5675C24 18.2331 23.5969 18.0674 23.3594 18.3018L22.1094 19.5521C22.0406 19.624 22 19.7177 22 19.8177Z" fill="#293965"/>
</svg>
