<svg width="27" height="28" viewBox="0 0 27 28" fill="none" xmlns="http://www.w3.org/2000/svg">
<path opacity="0.6" d="M13.5052 10.1878C12.5526 10.1878 11.6605 10.5508 10.9851 11.2142C10.3128 11.8777 9.94005 12.7539 9.94005 13.6896C9.94005 14.6253 10.3128 15.5015 10.9851 16.165C11.6605 16.8253 12.5526 17.1914 13.5052 17.1914C14.4578 17.1914 15.3499 16.8253 16.0253 16.165C16.6976 15.5015 17.0703 14.6253 17.0703 13.6896C17.0703 12.7539 16.6976 11.8777 16.0253 11.2142C15.6954 10.8877 15.3027 10.6288 14.8701 10.4526C14.4375 10.2764 13.9735 10.1864 13.5052 10.1878ZM26.6411 17.5575L24.5574 15.8082C24.6562 15.2136 24.7072 14.6065 24.7072 14.0025C24.7072 13.3986 24.6562 12.7883 24.5574 12.1969L26.6411 10.4475C26.7985 10.3152 26.9111 10.1389 26.9641 9.94213C27.017 9.74536 27.0077 9.53743 26.9374 9.34598L26.9087 9.26461C26.3353 7.68955 25.476 6.22957 24.3726 4.95542L24.3153 4.8897C24.1813 4.73496 24.0027 4.62372 23.8031 4.57065C23.6035 4.51758 23.3922 4.52516 23.197 4.59241L20.61 5.49681C19.6542 4.72697 18.59 4.11987 17.4367 3.6974L16.9365 1.04053C16.8988 0.840378 16.7999 0.656245 16.6531 0.51259C16.5063 0.368936 16.3184 0.272561 16.1145 0.23627L16.0285 0.220623C14.3718 -0.0735411 12.6258 -0.0735411 10.9691 0.220623L10.8831 0.23627C10.6792 0.272561 10.4913 0.368936 10.3445 0.51259C10.1977 0.656245 10.0989 0.840378 10.0611 1.04053L9.55772 3.70991C8.41531 4.13575 7.35108 4.74138 6.40677 5.50306L3.80062 4.59241C3.60553 4.52463 3.39405 4.51677 3.19431 4.56987C2.99456 4.62298 2.81599 4.73453 2.68233 4.8897L2.62498 4.95542C1.52356 6.23093 0.664544 7.69055 0.0889248 9.26461L0.0602508 9.34598C-0.0831194 9.73715 0.0347628 10.1753 0.356549 10.4475L2.46568 12.2156C2.36692 12.804 2.31913 13.4048 2.31913 13.9994C2.31913 14.6003 2.36692 15.2011 2.46568 15.7832L0.362921 17.5513C0.205519 17.6836 0.0928641 17.8599 0.0399367 18.0567C-0.0129907 18.2535 -0.00368289 18.4614 0.0666227 18.6528L0.0952967 18.7342C0.671963 20.3083 1.52263 21.7635 2.63135 23.0434L2.6887 23.1091C2.82269 23.2639 3.00126 23.3751 3.20089 23.4282C3.40052 23.4812 3.61184 23.4736 3.80699 23.4064L6.41314 22.4958C7.36257 23.2625 8.42032 23.8696 9.5641 24.2889L10.0675 26.9583C10.1052 27.1584 10.2041 27.3426 10.3509 27.4862C10.4977 27.6299 10.6856 27.7263 10.8895 27.7625L10.9755 27.7782C12.6485 28.0739 14.3619 28.0739 16.0349 27.7782L16.1209 27.7625C16.3248 27.7263 16.5127 27.6299 16.6595 27.4862C16.8063 27.3426 16.9051 27.1584 16.9429 26.9583L17.4431 24.3014C18.5964 23.8758 19.6605 23.2718 20.6163 22.502L23.2034 23.4064C23.3985 23.4742 23.6099 23.482 23.8097 23.4289C24.0094 23.3758 24.188 23.2643 24.3217 23.1091L24.379 23.0434C25.4877 21.7572 26.3384 20.3083 26.9151 18.7342L26.9437 18.6528C27.0807 18.2648 26.9629 17.8298 26.6411 17.5575ZM13.5052 19.1911C10.4116 19.1911 7.90419 16.7283 7.90419 13.6896C7.90419 10.6509 10.4116 8.1881 13.5052 8.1881C16.5988 8.1881 19.1062 10.6509 19.1062 13.6896C19.1062 16.7283 16.5988 19.1911 13.5052 19.1911Z" fill="black"/>
</svg>
