<svg width="36" height="36" viewBox="0 0 36 36" fill="none" xmlns="http://www.w3.org/2000/svg">
<circle cx="18" cy="18" r="18" fill="white"/>
<path d="M11.0714 25.3125C11.0714 25.7601 11.2408 26.1893 11.5421 26.5057C11.8435 26.8222 12.2523 27 12.6786 27H22.3214C22.7477 27 23.1565 26.8222 23.4578 26.5057C23.7592 26.1893 23.9286 25.7601 23.9286 25.3125V13.5H11.0714V25.3125ZM20.1786 16.3125C20.1786 16.1633 20.235 16.0202 20.3355 15.9148C20.4359 15.8093 20.5722 15.75 20.7143 15.75C20.8564 15.75 20.9926 15.8093 21.0931 15.9148C21.1936 16.0202 21.25 16.1633 21.25 16.3125V24.1875C21.25 24.3367 21.1936 24.4798 21.0931 24.5852C20.9926 24.6907 20.8564 24.75 20.7143 24.75C20.5722 24.75 20.4359 24.6907 20.3355 24.5852C20.235 24.4798 20.1786 24.3367 20.1786 24.1875V16.3125ZM16.9643 16.3125C16.9643 16.1633 17.0207 16.0202 17.1212 15.9148C17.2217 15.8093 17.3579 15.75 17.5 15.75C17.6421 15.75 17.7783 15.8093 17.8788 15.9148C17.9793 16.0202 18.0357 16.1633 18.0357 16.3125V24.1875C18.0357 24.3367 17.9793 24.4798 17.8788 24.5852C17.7783 24.6907 17.6421 24.75 17.5 24.75C17.3579 24.75 17.2217 24.6907 17.1212 24.5852C17.0207 24.4798 16.9643 24.3367 16.9643 24.1875V16.3125ZM13.75 16.3125C13.75 16.1633 13.8064 16.0202 13.9069 15.9148C14.0074 15.8093 14.1436 15.75 14.2857 15.75C14.4278 15.75 14.5641 15.8093 14.6645 15.9148C14.765 16.0202 14.8214 16.1633 14.8214 16.3125V24.1875C14.8214 24.3367 14.765 24.4798 14.6645 24.5852C14.5641 24.6907 14.4278 24.75 14.2857 24.75C14.1436 24.75 14.0074 24.6907 13.9069 24.5852C13.8064 24.4798 13.75 24.3367 13.75 24.1875V16.3125ZM24.4643 10.125H20.4464L20.1317 9.46758C20.065 9.32703 19.9623 9.20881 19.8352 9.1262C19.708 9.0436 19.5614 8.99989 19.4118 9.00001H15.5848C15.4356 8.9994 15.2893 9.04295 15.1625 9.12564C15.0358 9.20834 14.9338 9.32684 14.8683 9.46758L14.5536 10.125H10.5357C10.3936 10.125 10.2574 10.1843 10.1569 10.2898C10.0564 10.3952 10 10.5383 10 10.6875V11.8125C10 11.9617 10.0564 12.1048 10.1569 12.2103C10.2574 12.3157 10.3936 12.375 10.5357 12.375H24.4643C24.6064 12.375 24.7426 12.3157 24.8431 12.2103C24.9436 12.1048 25 11.9617 25 11.8125V10.6875C25 10.5383 24.9436 10.3952 24.8431 10.2898C24.7426 10.1843 24.6064 10.125 24.4643 10.125Z" fill="#364B85"/>
</svg>
