<svg width="44" height="44" viewBox="0 0 44 44" fill="none" xmlns="http://www.w3.org/2000/svg">
<g filter="url(#filter0_d_164_370)">
<circle cx="22" cy="18" r="18" fill="#DBDBDB"/>
<path d="M15.0714 25.3125C15.0714 25.7601 15.2408 26.1893 15.5421 26.5057C15.8435 26.8222 16.2523 27 16.6786 27H26.3214C26.7477 27 27.1565 26.8222 27.4578 26.5057C27.7592 26.1893 27.9286 25.7601 27.9286 25.3125V13.5H15.0714V25.3125ZM24.1786 16.3125C24.1786 16.1633 24.235 16.0202 24.3355 15.9148C24.4359 15.8093 24.5722 15.75 24.7143 15.75C24.8564 15.75 24.9926 15.8093 25.0931 15.9148C25.1936 16.0202 25.25 16.1633 25.25 16.3125V24.1875C25.25 24.3367 25.1936 24.4798 25.0931 24.5852C24.9926 24.6907 24.8564 24.75 24.7143 24.75C24.5722 24.75 24.4359 24.6907 24.3355 24.5852C24.235 24.4798 24.1786 24.3367 24.1786 24.1875V16.3125ZM20.9643 16.3125C20.9643 16.1633 21.0207 16.0202 21.1212 15.9148C21.2217 15.8093 21.3579 15.75 21.5 15.75C21.6421 15.75 21.7783 15.8093 21.8788 15.9148C21.9793 16.0202 22.0357 16.1633 22.0357 16.3125V24.1875C22.0357 24.3367 21.9793 24.4798 21.8788 24.5852C21.7783 24.6907 21.6421 24.75 21.5 24.75C21.3579 24.75 21.2217 24.6907 21.1212 24.5852C21.0207 24.4798 20.9643 24.3367 20.9643 24.1875V16.3125ZM17.75 16.3125C17.75 16.1633 17.8064 16.0202 17.9069 15.9148C18.0074 15.8093 18.1436 15.75 18.2857 15.75C18.4278 15.75 18.5641 15.8093 18.6645 15.9148C18.765 16.0202 18.8214 16.1633 18.8214 16.3125V24.1875C18.8214 24.3367 18.765 24.4798 18.6645 24.5852C18.5641 24.6907 18.4278 24.75 18.2857 24.75C18.1436 24.75 18.0074 24.6907 17.9069 24.5852C17.8064 24.4798 17.75 24.3367 17.75 24.1875V16.3125ZM28.4643 10.125H24.4464L24.1317 9.46758C24.065 9.32703 23.9623 9.20881 23.8352 9.1262C23.708 9.0436 23.5614 8.99989 23.4118 9.00001H19.5848C19.4356 8.9994 19.2893 9.04295 19.1625 9.12564C19.0358 9.20834 18.9338 9.32684 18.8683 9.46758L18.5536 10.125H14.5357C14.3936 10.125 14.2574 10.1843 14.1569 10.2898C14.0564 10.3952 14 10.5383 14 10.6875V11.8125C14 11.9617 14.0564 12.1048 14.1569 12.2103C14.2574 12.3157 14.3936 12.375 14.5357 12.375H28.4643C28.6064 12.375 28.7426 12.3157 28.8431 12.2103C28.9436 12.1048 29 11.9617 29 11.8125V10.6875C29 10.5383 28.9436 10.3952 28.8431 10.2898C28.7426 10.1843 28.6064 10.125 28.4643 10.125Z" fill="#293965"/>
</g>
<defs>
<filter id="filter0_d_164_370" x="0" y="0" width="44" height="44" filterUnits="userSpaceOnUse" color-interpolation-filters="sRGB">
<feFlood flood-opacity="0" result="BackgroundImageFix"/>
<feColorMatrix in="SourceAlpha" type="matrix" values="0 0 0 0 0 0 0 0 0 0 0 0 0 0 0 0 0 0 127 0" result="hardAlpha"/>
<feOffset dy="4"/>
<feGaussianBlur stdDeviation="2"/>
<feComposite in2="hardAlpha" operator="out"/>
<feColorMatrix type="matrix" values="0 0 0 0 0 0 0 0 0 0 0 0 0 0 0 0 0 0 0.25 0"/>
<feBlend mode="normal" in2="BackgroundImageFix" result="effect1_dropShadow_164_370"/>
<feBlend mode="normal" in="SourceGraphic" in2="effect1_dropShadow_164_370" result="shape"/>
</filter>
</defs>
</svg>
