<svg width="49" height="50" viewBox="0 0 49 50" fill="none" xmlns="http://www.w3.org/2000/svg">
<path fill-rule="evenodd" clip-rule="evenodd" d="M40.8333 2.77778C40.8333 2.04107 40.5465 1.33453 40.036 0.813592C39.5255 0.292658 38.8331 0 38.1111 0C37.3891 0 36.6967 0.292658 36.1862 0.813592C35.6757 1.33453 35.3889 2.04107 35.3889 2.77778V5.55556H2.72222C2.00024 5.55556 1.30784 5.84821 0.79732 6.36915C0.286805 6.89008 0 7.59662 0 8.33333C0 9.07005 0.286805 9.77658 0.79732 10.2975C1.30784 10.8185 2.00024 11.1111 2.72222 11.1111H35.3889V13.8889C35.3889 14.6256 35.6757 15.3321 36.1862 15.8531C36.6967 16.374 37.3891 16.6667 38.1111 16.6667C38.8331 16.6667 39.5255 16.374 40.036 15.8531C40.5465 15.3321 40.8333 14.6256 40.8333 13.8889V11.1111H46.2778C46.9998 11.1111 47.6922 10.8185 48.2027 10.2975C48.7132 9.77658 49 9.07005 49 8.33333C49 7.59662 48.7132 6.89008 48.2027 6.36915C47.6922 5.84821 46.9998 5.55556 46.2778 5.55556H40.8333V2.77778ZM2.72222 22.2222C2.00024 22.2222 1.30784 22.5149 0.79732 23.0358C0.286805 23.5567 0 24.2633 0 25C0 25.7367 0.286805 26.4432 0.79732 26.9642C1.30784 27.4851 2.00024 27.7778 2.72222 27.7778H8.16667V30.5556C8.16667 31.2923 8.45347 31.9988 8.96399 32.5197C9.4745 33.0407 10.1669 33.3333 10.8889 33.3333C11.6109 33.3333 12.3033 33.0407 12.8138 32.5197C13.3243 31.9988 13.6111 31.2923 13.6111 30.5556V27.7778H46.2778C46.9998 27.7778 47.6922 27.4851 48.2027 26.9642C48.7132 26.4432 49 25.7367 49 25C49 24.2633 48.7132 23.5567 48.2027 23.0358C47.6922 22.5149 46.9998 22.2222 46.2778 22.2222H13.6111V19.4444C13.6111 18.7077 13.3243 18.0012 12.8138 17.4803C12.3033 16.9593 11.6109 16.6667 10.8889 16.6667C10.1669 16.6667 9.4745 16.9593 8.96399 17.4803C8.45347 18.0012 8.16667 18.7077 8.16667 19.4444V22.2222H2.72222ZM0 41.6667C0 40.93 0.286805 40.2234 0.79732 39.7025C1.30784 39.1815 2.00024 38.8889 2.72222 38.8889H35.3889V36.1111C35.3889 35.3744 35.6757 34.6679 36.1862 34.1469C36.6967 33.626 37.3891 33.3333 38.1111 33.3333C38.8331 33.3333 39.5255 33.626 40.036 34.1469C40.5465 34.6679 40.8333 35.3744 40.8333 36.1111V38.8889H46.2778C46.9998 38.8889 47.6922 39.1815 48.2027 39.7025C48.7132 40.2234 49 40.93 49 41.6667C49 42.4034 48.7132 43.1099 48.2027 43.6309C47.6922 44.1518 46.9998 44.4444 46.2778 44.4444H40.8333V47.2222C40.8333 47.9589 40.5465 48.6655 40.036 49.1864C39.5255 49.7073 38.8331 50 38.1111 50C37.3891 50 36.6967 49.7073 36.1862 49.1864C35.6757 48.6655 35.3889 47.9589 35.3889 47.2222V44.4444H2.72222C2.00024 44.4444 1.30784 44.1518 0.79732 43.6309C0.286805 43.1099 0 42.4034 0 41.6667Z" fill="#606266"/>
</svg>
